<svg width="1024" height="1024" viewBox="0 0 1024 1024" fill="none" xmlns="http://www.w3.org/2000/svg">
  <path d="M512 1024C794.509 1024 1024 794.509 1024 512C1024 229.491 794.509 0 512 0C229.491 0 0 229.491 0 512C0 794.509 229.491 1024 512 1024Z" fill="#F0F0F0"/>
  <path d="M512 924C747.942 924 924 747.942 924 512C924 276.058 747.942 100 512 100C276.058 100 100 276.058 100 512C100 747.942 276.058 924 512 924Z" fill="#E6E6E6"/>
  <path d="M512 833C711.027 833 833 711.027 833 512C833 312.973 711.027 191 512 191C312.973 191 191 312.973 191 512C191 711.027 312.973 833 512 833Z" fill="#D9D9D9"/>
  <path d="M512 741C647.234 741 741 647.234 741 512C741 376.766 647.234 283 512 283C376.766 283 283 376.766 283 512C283 647.234 376.766 741 512 741Z" fill="#CCCCCC"/>
  <path d="M512 650C601.36 650 650 601.36 650 512C650 422.64 601.36 374 512 374C422.64 374 374 422.64 374 512C374 601.36 422.64 650 512 650Z" fill="#BFBFBF"/>
  <path d="M512 559C555.487 559 559 555.487 559 512C559 468.513 555.487 465 512 465C468.513 465 465 468.513 465 512C465 555.487 468.513 559 512 559Z" fill="#B3B3B3"/>
</svg>
